<svg width="121" height="131" viewBox="0 0 121 131" fill="none" xmlns="http://www.w3.org/2000/svg">
<path d="M6.70753 130.436L50.836 80.3947C59.9697 87.0689 71.3176 89.9805 82.5363 88.5284C93.755 87.0762 103.988 81.3711 111.121 72.5913C118.254 63.8116 121.743 52.6277 120.868 41.3493C119.992 30.071 114.818 19.5596 106.416 11.986C98.0128 4.41237 87.0223 0.354951 75.7139 0.651674C64.4056 0.948396 53.643 5.57659 45.6489 13.5805C37.6548 21.5843 33.0397 32.3525 32.7567 43.6613C32.4738 54.97 36.5446 65.9555 44.1285 74.3491L0 124.611L6.70753 130.436ZM75.548 10.3187C82.5189 9.91148 89.454 11.5807 95.4761 15.1152C101.498 18.6497 106.337 23.8907 109.38 30.1754C112.424 36.4601 113.535 43.5062 112.573 50.4225C111.612 57.3387 108.621 63.8145 103.979 69.0308C99.3365 74.2471 93.2516 77.9695 86.4937 79.7273C79.7358 81.4851 72.6084 81.1993 66.0129 78.9061C59.4174 76.6129 53.6502 72.4152 49.4405 66.844C45.2309 61.2728 42.768 54.5783 42.3633 47.6073C41.8209 38.2624 45.012 29.0846 51.235 22.092C57.4579 15.0995 66.2033 10.8646 75.548 10.3187Z" fill="black"/>
<path d="M6.70753 130.436L50.836 80.3947C59.9697 87.0689 71.3176 89.9805 82.5363 88.5284C93.755 87.0762 103.988 81.3711 111.121 72.5913C118.254 63.8116 121.743 52.6277 120.868 41.3493C119.992 30.071 114.818 19.5596 106.416 11.986C98.0128 4.41237 87.0223 0.354951 75.7139 0.651674C64.4056 0.948396 53.643 5.57659 45.6489 13.5805C37.6548 21.5843 33.0397 32.3525 32.7567 43.6613C32.4738 54.97 36.5446 65.9555 44.1285 74.3491L0 124.611L6.70753 130.436ZM75.548 10.3187C82.5189 9.91148 89.454 11.5807 95.4761 15.1152C101.498 18.6497 106.337 23.8907 109.38 30.1754C112.424 36.4601 113.535 43.5062 112.573 50.4225C111.612 57.3387 108.621 63.8145 103.979 69.0308C99.3365 74.2471 93.2516 77.9695 86.4937 79.7273C79.7358 81.4851 72.6084 81.1993 66.0129 78.9061C59.4174 76.6129 53.6502 72.4152 49.4405 66.844C45.2309 61.2728 42.768 54.5783 42.3633 47.6073C41.8209 38.2624 45.012 29.0846 51.235 22.092C57.4579 15.0995 66.2033 10.8646 75.548 10.3187Z" stroke="black"/>
</svg>
